<svg xmlns="http://www.w3.org/2000/svg" xmlns:xlink="http://www.w3.org/1999/xlink" width="328" height="189" viewBox="0 0 328 189">
    <defs>
        <path id="a" d="M6.566.81a6.304 6.304 0 0 1 6.304 6.304v61.179H.263V7.113A6.304 6.304 0 0 1 6.566.81z"/>
        <path id="c" d="M.87 20.334c1.086.537 1.93.323 2.531-.642.602-.965 1.008-2.184 1.22-3.658L5.762 2.176C7.26.574 8.954-.054 10.845.293c1.89.348 3.063 1.494 3.516 3.438l-1.625 16.602c-.393 2.995-1.768 5.443-4.122 7.344-2.355 1.9-4.936 2.646-7.743 2.236v-9.58z"/>
        <path id="e" d="M13.546 20.75v9.58c-2.807.41-5.388-.336-7.743-2.237-2.354-1.9-3.728-4.349-4.122-7.343L.17 4.557C.548 2.34 1.68 1.057 3.572.71A4.465 4.465 0 0 1 8.83 4.735l.967 11.715c.211 1.474.618 2.694 1.219 3.658.601.965 1.445 1.179 2.531.642z"/>
        <path id="g" d="M.749.538a.485.485 0 1 1 .97 0V67.05a.485.485 0 1 1-.97 0V.538z"/>
        <path id="i" d="M.9.538a.485.485 0 1 1 .97 0V67.05a.485.485 0 1 1-.97 0V.538z"/>
        <path id="k" d="M10.4 1.46a.485.485 0 1 1 .969.034c-.347 9.812-1.22 16.38-2.64 19.748-1.48 3.505-4.044 4.93-7.565 4.186a.485.485 0 0 1 .2-.95c3.056.646 5.17-.528 6.471-3.614 1.36-3.224 2.222-9.706 2.565-19.404z"/>
        <path id="m" d="M1.02 1.046c.342 9.698 1.204 16.18 2.564 19.404 1.302 3.086 3.415 4.26 6.47 3.614a.485.485 0 1 1 .201.95c-3.52.745-6.086-.681-7.565-4.186C1.27 17.46.397 10.892.05 1.08a.485.485 0 1 1 .97-.035z"/>
        <path id="o" d="M3.683 2.959c-1.52.523-2.952.362-3.2-.36-.25-.721.78-1.73 2.3-2.254 1.52-.523 2.953-.362 3.201.36.248.722-.782 1.73-2.301 2.254z"/>
        <path id="q" d="M3.296 3.68C3.073 5.272 2.28 6.475 1.523 6.37.767 6.262.336 4.886.559 3.295.783 1.705 1.577.5 2.333.607c.755.106 1.187 1.482.963 3.073z"/>
        <path id="s" d="M2.56 3.38C1.242 2.457.53 1.203.968.577c.438-.625 1.86-.384 3.176.537 1.316.922 2.028 2.176 1.59 2.8-.438.626-1.86.386-3.176-.536z"/>
        <path id="u" d="M1.95.992a.485.485 0 1 1 .687.686l-.97.971a.485.485 0 1 1-.686-.686l.97-.971z"/>
        <path id="w" d="M.526 1.486a.486.486 0 0 1 .868-.434l.97 1.942a.486.486 0 0 1-.868.434l-.97-1.942z"/>
        <path id="y" d="M2.576 2.32a.486.486 0 0 1-.806.538L.8 1.4a.486.486 0 0 1 .807-.538l.97 1.456z"/>
        <path id="A" d="M1.436.81a.485.485 0 1 1 .686.686l-.97.971a.485.485 0 1 1-.686-.686l.97-.971z"/>
        <path id="C" d="M1.92.963a.485.485 0 1 1 .808.538l-.97 1.457a.484.484 0 1 1-.807-.539L1.92.963z"/>
        <path id="E" d="M2.516 2.084a.486.486 0 0 1-.686.687L.86 1.8a.486.486 0 0 1 .686-.687l.97.971z"/>
        <path id="G" d="M1.617.308a.484.484 0 1 1 .686.687l-.97.971a.485.485 0 1 1-.686-.687l.97-.97z"/>
        <path id="I" d="M1.283.47a.484.484 0 1 1 .686.686l-.97.97a.484.484 0 1 1-.685-.686l.97-.97z"/>
        <path id="K" d="M.525 1.417a.486.486 0 0 1 .686-.686l.97.97a.486.486 0 0 1-.686.687l-.97-.97z"/>
        <path id="M" d="M3.048 1.496a.486.486 0 0 1-.538.808l-1.455-.971a.486.486 0 0 1 .538-.808l1.455.97z"/>
        <path id="O" d="M.78.551a.485.485 0 1 1 .97 0v1.942a.485.485 0 1 1-.97 0V.551z"/>
        <path id="Q" d="M.931.842a.485.485 0 1 1 .97 0v1.456a.485.485 0 1 1-.97 0V.842z"/>
        <path id="S" d="M4.412.512a3.637 3.637 0 0 1 3.636 3.637v36.173H.775V4.149A3.637 3.637 0 0 1 4.412.512z"/>
        <path id="U" d="M.048 11.963c.625.315 1.11.19 1.456-.376.346-.565.58-1.28.701-2.144l.658-8.122C3.723.382 4.697.014 5.785.218c1.087.204 1.761.875 2.022 2.015l-.935 9.73c-.226 1.755-1.016 3.19-2.37 4.304-1.355 1.114-2.84 1.55-4.454 1.31v-5.614z"/>
        <path id="W" d="M7.775 12.706v5.618c-1.628.24-3.125-.197-4.491-1.311-1.366-1.115-2.163-2.55-2.391-4.307L.017 3.21C.235 1.91.893 1.157 1.99.954a2.584 2.584 0 0 1 3.047 2.33l.563 6.9c.122.865.358 1.58.707 2.146.349.566.838.69 1.468.376z"/>
        <path id="Y" d="M.624 1.24c0-.134.16-.243.358-.243.198 0 .358.109.358.243v38.938c0 .134-.16.242-.358.242-.198 0-.358-.108-.358-.242V1.24z"/>
        <path id="handleCardClicked" d="M.715 1.24c0-.134.16-.243.358-.243.198 0 .358.109.358.243v38.938c0 .134-.16.242-.358.242-.198 0-.358-.108-.358-.242V1.24z"/>
        <path id="ac" d="M6.625 1.126a.243.243 0 1 1 .484.017c-.21 5.835-.737 9.74-1.593 11.737-.886 2.066-2.413 2.901-4.517 2.463a.243.243 0 0 1 .099-.475c1.874.39 3.176-.322 3.972-2.18.825-1.924 1.347-5.786 1.555-11.562z"/>
        <path id="ae" d="M.683.358c.208 5.776.73 9.638 1.555 11.563.796 1.857 2.098 2.57 3.972 2.179a.242.242 0 1 1 .1.475c-2.105.438-3.632-.397-4.518-2.463C.936 10.115.408 6.21.2.376A.242.242 0 1 1 .683.358z"/>
        <path id="ag" d="M2.646 2.48c-.94.217-1.78.048-1.878-.377C.67 1.678 1.35 1.158 2.29.941c.94-.217 1.78-.048 1.878.377.099.425-.583.945-1.523 1.162z"/>
        <path id="ai" d="M2.521 2.152c-.233.936-.765 1.61-1.188 1.505C.91 3.55.757 2.707.991 1.77 1.224.834 1.756.16 2.179.265c.422.105.576.95.342 1.887z"/>
        <path id="ak" d="M1.257 2.884C.53 2.251.172 1.471.457 1.142c.287-.33 1.108-.083 1.835.55.728.633 1.086 1.413.8 1.742-.286.33-1.107.083-1.835-.55z"/>
        <path id="am" d="M2.376 2.651c-.912.314-1.766.234-1.908-.178C.326 2.06.95 1.472 1.862 1.158c.911-.314 1.765-.234 1.907.178.142.413-.482 1.001-1.393 1.315z"/>
        <path id="ao" d="M2.114 2.344c-.134.954-.593 1.679-1.025 1.618-.432-.06-.673-.884-.54-1.838.135-.955.594-1.68 1.026-1.619.431.06.673.884.539 1.839z"/>
        <path id="aq" d="M1.937 2.308C1.147 1.756.71 1.018.96.66c.25-.357 1.093-.198 1.883.355.79.553 1.227 1.29.977 1.648-.25.357-1.093.199-1.883-.354z"/>
        <path id="as" d="M.806.386a.242.242 0 1 1 .343.343l-.647.648a.242.242 0 1 1-.343-.344L.806.386z"/>
        <path id="au" d="M.694 1.311a.243.243 0 0 1 .424-.236l.647 1.165a.243.243 0 0 1-.424.236L.694 1.311z"/>
        <path id="aw" d="M1.583 1.454a.243.243 0 0 1-.362.322l-.647-.728A.243.243 0 0 1 .937.725l.646.729z"/>
        <path id="ay" d="M1.29.98a.242.242 0 1 1 .344.343l-.647.647a.242.242 0 1 1-.343-.343L1.291.98z"/>
        <path id="aA" d="M1.311.688a.242.242 0 1 1 .363.323l-.647.728a.242.242 0 1 1-.362-.322L1.31.688z"/>
        <path id="aC" d="M1.573 1.706a.243.243 0 0 1-.343.343l-.646-.647a.243.243 0 0 1 .343-.343l.646.647z"/>
        <path id="aE" d="M.896.885a.242.242 0 1 1 .343.343l-.646.647a.242.242 0 1 1-.343-.343L.896.885z"/>
        <path id="aG" d="M1.502 1.067a.242.242 0 1 1 .343.343l-.646.647a.242.242 0 1 1-.343-.343l.646-.647z"/>
        <path id="aI" d="M.977 1.07a.243.243 0 0 1 .342-.344l.647.648a.243.243 0 0 1-.343.343L.977 1.07z"/>
        <path id="aK" d="M1.179 1.277a.243.243 0 0 1-.322.363L.129.992A.243.243 0 0 1 .452.63l.727.648z"/>
        <path id="aM" d="M.594 1.077c0-.134.16-.243.359-.243.198 0 .358.109.358.243v1.165c0 .134-.16.243-.358.243-.198 0-.359-.109-.359-.243V1.077z"/>
        <path id="aO" d="M.17.712C.17.578.33.47.528.47c.198 0 .358.108.358.242v.729c0 .134-.16.242-.358.242-.198 0-.358-.108-.358-.242V.712z"/>
        <path id="aQ" d="M2.782.99c1.205 0 2.182.976 2.182 2.181v22.093H.6V3.17C.6 1.966 1.577.99 2.782.99z"/>
        <path id="aS" d="M5.6 7.997v3.43c-1.01.148-1.937-.12-2.783-.8a3.919 3.919 0 0 1-1.482-2.63L.75 2.051C.914 1.354 1.335.944 2.014.82c.68-.125 1.289.1 1.827.674l.41 4.963c.077.528.223.965.439 1.31.216.346.52.422.91.23z"/>
        <path id="aU" d="M.479 8.14c.394.192.7.116.917-.23.218-.346.366-.783.443-1.311l.348-4.179A1.623 1.623 0 0 1 4.095.958c.685.125 1.096.584 1.233 1.379L4.78 8.14c-.142 1.073-.64 1.95-1.494 2.632-.854.68-1.79.948-2.807.801V8.14z"/>
        <path id="aW" d="M.812 1.14v24.035c0 .134-.16.243-.358.243-.198 0-.359-.11-.359-.243V1.139c0-.134.16-.243.359-.243.197 0 .358.11.358.243z"/>
        <path id="aY" d="M.751 1.14v24.035c0 .134-.16.243-.358.243-.198 0-.358-.11-.358-.243V1.139c0-.134.16-.243.358-.243.198 0 .358.11.358.243z"/>
        <path id="ba" d="M1.448.749c.12 3.576.424 5.966.9 7.148.448 1.112 1.16 1.525 2.2 1.295a.242.242 0 1 1 .104.474c-1.28.283-2.22-.263-2.753-1.587C1.394 6.827 1.086 4.396.963.765A.243.243 0 1 1 1.448.75z"/>
        <path id="bc" d="M3.63.894a.243.243 0 1 1 .486.017c-.123 3.63-.432 6.061-.936 7.313-.534 1.324-1.473 1.87-2.754 1.587a.243.243 0 0 1 .105-.474c1.04.23 1.751-.183 2.2-1.294.476-1.183.78-3.573.9-7.149z"/>
        <path id="be" d="M1.151 1.35C.805.908.712.404.94.225c.23-.179.696.035 1.042.478.347.443.441.948.212 1.127-.229.179-.695-.035-1.042-.478z"/>
        <path id="bg" d="M.707 1.684c.238-.51.644-.823.908-.7.263.122.284.635.046 1.145-.237.51-.643.823-.907.7S.469 2.194.707 1.684z"/>
        <path id="bi" d="M1.507 1.983c-.562.02-1.026-.2-1.036-.49-.01-.291.438-.543 1-.563.562-.02 1.025.2 1.036.491.01.29-.438.542-1 .562z"/>
        <path id="bk" d="M.791.326l.324.324a.243.243 0 0 1-.343.343L.449.67A.243.243 0 0 1 .79.326z"/>
        <path id="bm" d="M1.622.404l-.323.777A.242.242 0 1 1 .85.994l.323-.777a.242.242 0 1 1 .448.187z"/>
        <path id="bo" d="M.5 1.108L.822.744a.242.242 0 1 1 .362.322l-.323.364a.242.242 0 1 1-.363-.322z"/>
        <path id="bq" d="M1.307.58l.323.323a.243.243 0 0 1-.343.343L.964.923a.243.243 0 0 1 .343-.344z"/>
        <path id="bs" d="M.801.91l.324.364a.243.243 0 0 1-.363.323L.44 1.233A.243.243 0 0 1 .8.91z"/>
        <path id="bu" d="M.51.642L.831.318a.242.242 0 1 1 .343.344L.852.985A.242.242 0 1 1 .509.642z"/>
        <path id="bw" d="M1.246.717l.323.323a.243.243 0 0 1-.342.344L.903 1.06a.243.243 0 0 1 .343-.343z"/>
        <path id="by" d="M1.186.637l.323.324a.243.243 0 0 1-.343.343L.843.981a.243.243 0 0 1 .343-.344z"/>
        <path id="bA" d="M.933.582L.61.906A.242.242 0 1 1 .267.563L.591.239a.242.242 0 1 1 .343.343z"/>
        <path id="bC" d="M.439.495L.802.17a.242.242 0 1 1 .323.363L.76.858A.242.242 0 1 1 .439.495z"/>
        <path id="bE" d="M.72.738v.777c0 .134-.16.243-.358.243-.198 0-.358-.109-.358-.243V.738c0-.134.16-.242.358-.242.198 0 .359.108.359.242z"/>
        <path id="bG" d="M1.175.303v.365c0 .134-.16.242-.358.242C.619.91.459.802.459.668V.303c0-.134.16-.242.358-.242.198 0 .358.108.358.242z"/>
        <path id="bI" d="M.802 9.854s1.391-2.468 3.142-3.237c1.75-.769 3.68-.645 3.68-.645S7.713 1.158 14.32.45c6.606-.708 7.676 3.676 7.676 3.676s2.932-1.498 5.68-1.1c2.75.399 3.92 2.492 3.92 2.492s1.506-1.106 3.797 0c2.291 1.105 2.793 3.18 2.793 3.18s2.863 0 2.863 2.338c0 2.337-2.037 1.735-2.037 1.735L.802 9.854z"/>
        <linearGradient id="bJ" x1="47.126%" x2="47.126%" y1="34.277%" y2="194.277%">
            <stop offset="0%" stop-color="#FFF"/>
            <stop offset="100%" stop-color="#F2F2F2"/>
        </linearGradient>
        <path id="bL" d="M.802 9.854s1.391-2.468 3.142-3.237c1.75-.769 3.68-.645 3.68-.645S7.713 1.158 14.32.45c6.606-.708 7.676 3.676 7.676 3.676s2.932-1.498 5.68-1.1c2.75.399 3.92 2.492 3.92 2.492s1.506-1.106 3.797 0c2.291 1.105 2.793 3.18 2.793 3.18s2.863 0 2.863 2.338c0 2.337-2.037 1.735-2.037 1.735L.802 9.854z"/>
        <linearGradient id="bM" x1="52.014%" x2="52.014%" y1="35.924%" y2="34.277%">
            <stop offset="0%" stop-color="#FFF"/>
            <stop offset="100%" stop-color="#F2F2F2"/>
        </linearGradient>
        <path id="bO" d="M320 25.026v1.584H0C43.744 8.366 94.313-.192 151.709.935c42.023.825 76.934-4.996 130.714 5.686 19.92 3.956 32.447 10.091 37.577 18.405z"/>
        <linearGradient id="bP" x1="0%" x2="0%" y1="46.419%" y2="206.419%">
            <stop offset="0%" stop-color="#FFF"/>
            <stop offset="100%" stop-color="#F2F2F2"/>
        </linearGradient>
        <path id="bR" d="M320 25.026v1.584H0C43.744 8.366 94.313-.192 151.709.935c42.023.825 76.934-4.996 130.714 5.686 19.92 3.956 32.447 10.091 37.577 18.405z"/>
        <linearGradient id="bS" x1="38.973%" x2="38.973%" y1="49.924%" y2="46.419%">
            <stop offset="0%" stop-color="#FFF" stop-opacity="0"/>
            <stop offset="100%" stop-color="#F2F2F2"/>
        </linearGradient>
        <path id="bU" d="M12.206 2.147c1.658.194 2.478-.265 2.478-.265s-3.328 6.21-11.828 4.136c-.953-.332-1.401-.676-1.599-.963.206-.495.544-1.084 1.126-1.536.332-.259.752-.455 1.225-.551a9.68 9.68 0 0 1 1.453-.243c.912-.076 1.668 0 1.91.02s.678.057 1.203.109c.52.058 1.16.109 1.72.104 1.14.01 2.113-.074 2.111-.075.002.001-1.009-.004-2.157-.104a17.19 17.19 0 0 1-1.7-.22c-.53-.086-.983-.146-1.236-.168-.475-.036-3.272-.388-5.1.738-.426.3-.743.648-.986.99-.278-.186-.604-.484-.605-.852C.217 2.627.855.907 4.09.83c3.237-.076 6.458 1.122 8.115 1.317z"/>
        <path id="bW" d="M6.257 2.416c.752.269 1.184.143 1.184.143s-2.22 2.536-5.958.655c-.409-.257-.58-.466-.641-.62.149-.21.37-.447.69-.595.182-.085.4-.132.63-.126a4.64 4.64 0 0 1 .703.044c.433.062.777.179.888.214.11.036.31.1.549.18.236.084.529.176.79.234.53.128.993.193.992.193.001 0-.47-.11-.994-.281a8.19 8.19 0 0 1-.768-.286 9.692 9.692 0 0 0-.558-.21c-.218-.069-1.484-.534-2.457-.206-.23.094-.416.223-.565.356-.11-.117-.23-.291-.191-.463C.618 1.35 1.1.618 2.617.93c1.516.313 2.889 1.218 3.64 1.487z"/>
        <path id="bY" d="M4.545 1.511c.682-.5.827-.955.827-.955S6.286 4.01 2.416 6.18c-.469.207-.754.234-.926.196a1.884 1.884 0 0 1-.114-.959c.034-.21.122-.43.264-.628.15-.227.297-.418.455-.593.312-.344.618-.577.714-.653.098-.076.272-.214.485-.376.213-.158.467-.36.673-.556.427-.39.759-.758.758-.758.001 0-.375.347-.836.707-.23.187-.476.355-.707.507-.226.151-.415.286-.516.365-.189.151-1.348.988-1.637 2.038a2.071 2.071 0 0 0-.023.708c-.168.027-.392.03-.52-.107-.222-.236-.58-1.095.593-2.242C2.255 2.682 3.863 2.012 4.546 1.51z"/>
        <path id="ca" d="M4.041 1.187c.595-.14.82-.402.82-.402S4.494 3.34 1.307 3.692c-.37.005-.566-.057-.67-.13.008-.197.05-.442.195-.67a1.08 1.08 0 0 1 .352-.344c.163-.108.316-.194.47-.265.304-.141.574-.21.66-.233.086-.023.24-.065.428-.113.186-.045.412-.108.605-.18.394-.14.718-.29.717-.29.001 0-.347.125-.755.234a6.296 6.296 0 0 1-.613.137 7.372 7.372 0 0 0-.447.098c-.168.047-1.175.276-1.663.893a1.498 1.498 0 0 0-.215.464c-.12-.03-.269-.091-.316-.217-.08-.22-.077-.893 1.028-1.324 1.104-.432 2.363-.423 2.958-.564z"/>
        <path id="cc" d="M12.456.967c.893.06 1.77.449 2.41 1.07a3.858 3.858 0 0 1 1.15 2.366c.109.881-.043 1.81-.431 2.617a4.848 4.848 0 0 1-2.98 2.555 6.77 6.77 0 0 1-.706.157l-.237.04-.389.067L.086 11.804l1.665-.36 9.87-1.876c.355-.067.648-.125.921-.214.44-.145.828-.327 1.152-.544a4.636 4.636 0 0 0 1.65-1.904 4.482 4.482 0 0 0 .384-2.458 3.523 3.523 0 0 0-1.08-2.187 3.6 3.6 0 0 0-2.216-1.004 3.87 3.87 0 0 0-.616.007 3.104 3.104 0 0 0-.61.114 2.78 2.78 0 0 0-1.054.592 2.793 2.793 0 0 0-.937 2.175 2.29 2.29 0 0 0 1.183 1.985c.434.238.962.326 1.45.24.331-.059.629-.197.857-.395.313-.262.536-.643.615-1.05.037-.216.04-.414.008-.623a1.451 1.451 0 0 0-.219-.566 1.495 1.495 0 0 0-1.403-.684 1.543 1.543 0 0 1 1.458.64c.491.713.328 1.782-.366 2.384-.615.55-1.684.643-2.493.232-.786-.386-1.322-1.247-1.334-2.152a3.044 3.044 0 0 1 1.002-2.384c.413-.388.96-.65 1.577-.759.302-.053.605-.069.906-.046z"/>
        <path id="ce" d="M8.605.828a2.45 2.45 0 0 1 1.51.701c.395.39.65.939.699 1.506a3.001 3.001 0 0 1-.301 1.647 3.06 3.06 0 0 1-2.355 1.67l-.15.024-.247.038L.681 7.53l1.054-.208 6.249-1.076c.224-.038.41-.071.583-.125.28-.086.526-.197.733-.33.453-.285.83-.705 1.063-1.183.233-.477.329-1.028.269-1.548a2.223 2.223 0 0 0-.658-1.392 2.272 2.272 0 0 0-1.776-.66 1.755 1.755 0 0 0-1.058.428c-.396.338-.626.85-.615 1.362 0 .528.277 1.013.725 1.265.271.155.603.216.912.167.21-.033.4-.117.545-.24.2-.161.346-.4.4-.656.026-.135.03-.26.012-.392a.944.944 0 0 0-1.01-.807.974.974 0 0 1 .913.42c.302.456.188 1.129-.257 1.5-.394.34-1.07.388-1.576.12a1.558 1.558 0 0 1-.818-1.373 1.921 1.921 0 0 1 .658-1.494c.265-.24.613-.4 1.004-.461.191-.03.383-.037.572-.02z"/>
        <path id="cg" d="M12.592.62c.825.128 1.61.56 2.154 1.19.544.617.862 1.451.877 2.294.03.829-.187 1.68-.614 2.399a4.525 4.525 0 0 1-2.978 2.133c-.233.046-.47.07-.67.088l-.224.019-.366.03L.208 9.69l1.578-.198 9.33-.943c.335-.033.613-.063.874-.124.42-.099.796-.236 1.116-.412a4.328 4.328 0 0 0 1.689-1.636 4.183 4.183 0 0 0 .556-2.255 3.287 3.287 0 0 0-.826-2.121A3.36 3.36 0 0 0 12.546.887a3.612 3.612 0 0 0-.573-.044 2.897 2.897 0 0 0-.576.057c-.378.08-.735.241-1.029.465A2.607 2.607 0 0 0 9.32 3.31c-.055.78.304 1.524.938 1.942.385.256.869.38 1.33.34.312-.027.6-.131.829-.297.311-.218.55-.554.657-.927.052-.196.07-.38.057-.577a1.355 1.355 0 0 0-.157-.545 1.396 1.396 0 0 0-1.248-.75 1.44 1.44 0 0 1 1.304.714c.397.703.16 1.684-.535 2.187-.617.461-1.618.461-2.338.012-.699-.422-1.127-1.266-1.065-2.109a2.842 2.842 0 0 1 1.125-2.135c.416-.327.946-.526 1.53-.577.284-.025.567-.015.845.03z"/>
        <path id="ci" d="M12.476.548c.825.128 1.61.561 2.154 1.19.543.618.862 1.452.876 2.295a4.44 4.44 0 0 1-.613 2.399 4.526 4.526 0 0 1-2.978 2.133c-.233.046-.47.07-.67.088l-.224.019-.367.03L.092 9.62l1.577-.199L11 8.478c.336-.033.613-.063.875-.124.42-.1.796-.237 1.115-.412a4.328 4.328 0 0 0 1.69-1.636 4.183 4.183 0 0 0 .556-2.255 3.288 3.288 0 0 0-.826-2.122A3.36 3.36 0 0 0 12.43.816a3.611 3.611 0 0 0-.573-.044 2.897 2.897 0 0 0-.576.057c-.378.08-.735.24-1.03.465A2.607 2.607 0 0 0 9.205 3.24c-.056.78.303 1.524.938 1.942.385.256.868.38 1.33.34.312-.027.6-.131.828-.297.312-.218.55-.554.657-.927.053-.197.07-.38.058-.577a1.355 1.355 0 0 0-.157-.545 1.396 1.396 0 0 0-1.249-.75 1.44 1.44 0 0 1 1.304.714c.398.703.16 1.684-.534 2.187-.617.46-1.619.46-2.338.012-.7-.422-1.128-1.266-1.065-2.109A2.842 2.842 0 0 1 10.1 1.095c.416-.328.945-.527 1.529-.578.285-.025.568-.014.846.03z"/>
        <path id="ck" d="M9.75 19.42C4.392 19.42.05 15.072.05 9.71.051 4.347 4.393 0 9.75 0c5.356 0 9.698 4.347 9.698 9.71 0 5.362-4.342 9.71-9.698 9.71z"/>
        <path id="cm" d="M.051 19.397s2.784-4.94 6.286-6.478c3.502-1.538 7.364-1.29 7.364-1.29S13.88 1.999 27.096.582C40.314-.834 42.454 7.937 42.454 7.937s5.867-2.997 11.366-2.2c5.5.798 7.842 4.986 7.842 4.986s3.014-2.213 7.597 0c4.584 2.212 5.589 6.363 5.589 6.363s5.728 0 5.728 4.676c0 4.677-4.076 3.472-4.076 3.472L.051 19.397z"/>
        <linearGradient id="cn" x1="69.704%" x2="69.704%" y1="30.379%" y2="190.379%">
            <stop offset="0%" stop-color="#FFF"/>
            <stop offset="100%" stop-color="#F2F2F2"/>
        </linearGradient>
        <path id="cp" d="M.051 19.397s2.784-4.94 6.286-6.478c3.502-1.538 7.364-1.29 7.364-1.29S13.88 1.999 27.096.582C40.314-.834 42.454 7.937 42.454 7.937s5.867-2.997 11.366-2.2c5.5.798 7.842 4.986 7.842 4.986s3.014-2.213 7.597 0c4.584 2.212 5.589 6.363 5.589 6.363s5.728 0 5.728 4.676c0 4.677-4.076 3.472-4.076 3.472L.051 19.397z"/>
        <linearGradient id="cq" x1="79.484%" x2="79.484%" y1="33.675%" y2="30.379%">
            <stop offset="0%" stop-color="#FFF"/>
            <stop offset="100%" stop-color="#F2F2F2"/>
        </linearGradient>
        <path id="cs" d="M1.356 1.851H.968L7.971.796c.752 2.612 1.128 4.557 1.128 5.834 0 1.071-.143 5.416-.548 12.175-.052.873-.01 2.323.126 4.352H4.57a236.52 236.52 0 0 1-1.587-14.69c-.17-2.207-1.394-4.414-1.627-5.531-.194-.933-.194-1.294 0-1.085z"/>
        <path id="cu" d="M5.615.806c-1.35.116-2.25.173-2.7.173C2.466.98 1.79.922.889.806L.803.055h4.854l-.042.751z"/>
        <path id="cw" d="M.88.803A71.5 71.5 0 0 0 3.45.88C3.933.88 4.66.855 5.628.803c-.02 1.341-.02 2.29 0 2.846s.089 1.376.207 2.46H1.581a36.907 36.907 0 0 1-.28-1.841c-.103-.77-.243-1.925-.422-3.465z"/>
        <path id="cy" d="M.403.82c.701.002 1.416.002 2.145.003C3.277.824 4.06.81 4.896.781c.303 1.788 1.022 2.684 2.155 2.685 1.7.002 2.233.805 2.358 1.295.082.322.31.822-.51 1.505-.938.784-7.636.846-8.22.775C.093 6.971.514 4.543.52 3.864.525 3.427.486 2.413.403.82z"/>
        <path id="cA" d="M1.376.748L.99.701 8.07.508c.428 2.683.564 4.66.409 5.928-.13 1.062-.803 5.358-2.028 12.017-.158.86-.293 2.305-.406 4.334l-4.076-.5c-.083-4.866-.012-9.79.215-14.773.1-2.212-.846-4.552-.94-5.689-.08-.95-.036-1.308.132-1.077z"/>
        <path id="cC" d="M5.636 1.47c-1.354-.05-2.254-.103-2.7-.158-.447-.055-1.11-.194-1.992-.419L.952.137l4.817.591-.133.741z"/>
        <path id="cE" d="M.936.888c1.216.202 2.063.333 2.542.391.48.06 1.203.122 2.172.188a66.478 66.478 0 0 0-.347 2.826c-.049.554-.08 1.376-.095 2.466L.986 6.241a36.9 36.9 0 0 1-.054-1.862C.923 3.602.925 2.44.935.89z"/>
        <path id="cG" d="M.844.933l2.129.264c.723.09 1.502.17 2.336.244.083 1.812.687 2.788 1.811 2.928 1.688.209 2.119 1.071 2.183 1.573.042.329.207.853-.689 1.431C7.587 8.037.931 7.282.36 7.141c-.57-.142.142-2.5.232-3.174.057-.432.141-1.444.253-3.034z"/>
        <path id="cI" d="M2.162.912C3.927 2.03 6.088 2.5 8.646 2.322c2.558-.18 6.477-.25 11.758-.215 2.449 10.364 3.39 19.57 2.821 27.618 0 0-2.345.22-4.76.624-2.352.395-4.771.996-5.062-.61-.393-2.171-1.026-4.149-1.9-5.934.043 4.545-.1 6.89-.426 7.036-.327.146-3.833.151-10.518.017C.523 16.379.536 8.14.6 6.145c.064-1.997.585-3.741 1.563-5.233z"/>
        <path id="cK" d="M.447.927h1.46V13.61H.447z"/>
        <path id="cM" d="M.447.927h1.46V13.61H.447z"/>
        <path id="cO" d="M.473.415h2.434v1.95H.473z"/>
        <path id="cQ" d="M5.022 1.054L20.04.18l5.06 1.964H35.54l-4.936 21.368h-7.642L.987 19.247z"/>
        <path id="cS" d="M18.263.073c.222 0 1.706.684 4.453 2.05h9.364l-4.443 19.098-7.808.316L.447 17.1 3.983 1.068C13.282.406 18.041.074 18.263.074z"/>
        <path id="cU" d="M.42 4.47a.244.244 0 0 1 0-.487h11.722c.268 0 .56.079 1.001.251.058.023.962.397 1.282.517 2.093.785 4.19 1.003 7.027.397 3.724-.796 6.373-2.435 7.963-4.914a.243.243 0 1 1 .41.264c-1.666 2.597-4.428 4.306-8.271 5.127-2.933.627-5.123.4-7.3-.418-.328-.123-1.237-.498-1.288-.518-.388-.152-.633-.219-.824-.219H.42z"/>
        <path id="cW" d="M.073.78c0-.134.16-.243.358-.243C.63.537.79.646.79.78v7.805c0 .135-.16.244-.358.244-.197 0-.358-.109-.358-.244V.78z"/>
        <path id="cY" d="M1.008 1.406a.244.244 0 0 1 .13-.47c1.373.381 2.579.625 3.616.73.425.043.677.056 1.224.073.147.005.228.007.319.012.688.03 1.267.127 2.257.404 1.366.383 2.185.813 2.467 1.34a.243.243 0 1 1-.428.231c-.199-.37-.926-.753-2.17-1.1-.955-.268-1.498-.359-2.148-.388a20.82 20.82 0 0 0-.312-.011c-.558-.017-.819-.031-1.258-.076-1.067-.108-2.3-.357-3.697-.745z"/>
        <path id="da" d="M.86 7.268a.244.244 0 0 1 0-.488c.087 0 .86-.513 2.06-1.414C4.214 4.392 6.072 2.93 8.493.98a.243.243 0 0 1 .342.037.244.244 0 0 1-.037.343C3.76 5.419 1.3 7.268.86 7.268z"/>
        <path id="dc" d="M1.055.89a.244.244 0 0 1 .027-.344.243.243 0 0 1 .343.027l2.29 2.683a.243.243 0 1 1-.37.317L1.055.89z"/>
        <path id="de" d="M.42 8.614l1.087-4.822c2.289-.66 5.958-1.18 11.006-1.56 7.573-.573 8.318.293 9.657 0 .893-.197 1.723-.897 2.492-2.101h4.443c-.48 3.377-2.078 5.757-4.793 7.14-2.715 1.383-5.557 1.831-8.528 1.343H.42z"/>
        <path id="dg" d="M3.35 2.399h-.975C.975 2.289.44 1.861.766 1.117c.327-.743 1.07-.916 2.232-.52 1.432.36 2.313.96 2.642 1.802.33.841.448 2.932.357 6.27l-3.622.502.623-2.011h-.623l.975-4.761z"/>
        <path id="di" d="M4.934 2.601C5.915 1.447 7.102.725 8.495.436c1.393-.289 3.686-.289 6.88 0 1.48.302 2.726.844 3.736 1.623.774.598 2.552 3.8 6.436 6.908 1.185.948 2.424 2.244 4.373 2.021 1.949-.223 2.343-2.903 2.343-3.865V1.066L37 .436c-.764 8.62-2.444 13.538-5.04 14.753-2.595 1.214-5.852.066-9.77-3.444v16.84c-2.317.204-4.019.42-5.105.649-2.382.501-5.462.742-8.59.742-2.4 0-5.065-.464-7.995-1.392L.792 6.153 4.934 2.6z"/>
        <path id="dk" d="M5.076.378c.644.228 1.14.507 1.14 2.69 0 .234-.007-.734 0-.652.124 1.322.217 8.113.28 20.373a4.577 4.577 0 0 1-5.163 4.563L.18 3.96.946.175C3.253.152 4.63.22 5.076.378z"/>
        <path id="dm" d="M3.047.295c.716-.1 1.33-.1 1.839 0 .51.1.896.263 1.16.49-.805.17-1.426.401-1.864.692-.437.29-.756.684-.958 1.181H.694c.194-.488.44-.882.74-1.181.298-.3.835-.694 1.613-1.182z"/>
        <path id="do" d="M.553 3.476L16.127.171l-.21 27.317H8.553a8 8 0 0 1-8-8V3.476z"/>
        <path id="dq" d="M4.48.17l14.593.144C17.23.95 16.114 1.959 15.725 3.34c-.389 1.38-.564 3.088-.524 5.123H.58c.156-2.59.431-4.416.826-5.479.394-1.063 1.42-2 3.075-2.813z"/>
        <path id="ds" d="M.447.488h1.946v14.146H.447z"/>
        <path id="du" d="M.287.488h1.946v14.146H.287z"/>
        <path id="dw" d="M.473.341H3.88v2.44H.473z"/>
        <path id="dy" d="M.8.341h3.407v2.44H.8z"/>
        <path id="dA" d="M.613 5.953V.707H4.02v5.246c0 .875-.394 1.584-.88 1.584H1.493c-.486 0-.88-.71-.88-1.584z"/>
        <path id="dC" d="M1.494.268H3.14c.486 0 .88.701.88 1.566v1.361H.613v-1.36c0-.866.394-1.567.88-1.567z"/>
        <path id="dE" d="M2.04.756c.806 0 1.46.654 1.46 1.46v5.86a1.46 1.46 0 0 1-2.92 0v-5.86c0-.806.654-1.46 1.46-1.46z"/>
        <path id="dG" d="M.812 12.798l.215-2L9.769.555c.305 3.905.305 6.588 0 8.05-.458 2.193-.375 2.162-1.144 3.167-.513.67-1.334 1.338-2.463 2.003v1.597H.812v-2.574z"/>
        <path id="dI" d="M.75 6.625C.63 3.32 2.118 1.333 5.21.659c4.64-1.01 5.808.172 7.214.653 1.4.479 1.417 3.013.972 3.952-.49 1.036-1.424 1.568-2.802 1.595-1.57-.29-2.354.233-2.354 1.571 0 1.338.403 1.962 1.209 1.872-.202.82-.354 1.527-.46 2.122-.104.595-.488 1.141-1.152 1.638h-3.8a9.95 9.95 0 0 1-2.236-2.518C1.21 10.589.859 8.95.75 6.624z"/>
        <path id="dK" d="M3.938 1.986c5.976-3.031 8.193.226 8.193 1.097 0 .827-2.147 1.306-5.867 1.397-.199.004-1.45 0-1.652 0-3.998 0-3.075.433-3.12.504-.046.071-3.529.032 2.446-2.998z"/>
        <path id="dM" d="M2.942 1.85c4.885-3.076 5.677.16 5.677 1.043 0 .884-1.662 1.933-4.93 1.933-3.269 0-2.612.884-2.612 0s-3.02.1 1.865-2.976z"/>
        <path id="dO" d="M.787 3.292L3.41.597l.455.615v6.177c-1.114-.436-1.832-.895-2.152-1.377-.32-.482-.63-1.388-.926-2.72z"/>
        <path id="dQ" d="M5.944 1.863L21.706.257c3.485-.384 5.651.029 6.499 1.238.848 1.21 1.704 5.11 2.57 11.7 1.145 3.616 1.909 6.665 2.292 9.147.235 1.524.63 3.594.771 6.143.059 1.068-.039 3.032-.293 5.892a86.344 86.344 0 0 0-1.77 0c-.598.006-1.091.006-1.48 0-.149-1.754-.57-3.718-1.262-5.892-1.04-3.262-3.152-12.814-3.256-12.299-.068.344 1.017 5.472 3.256 15.386l-3.83 2.805-19.259-2.285c.421-1.906.632-3.792.632-5.657 0-1.865-.21-4.418-.632-7.66-.549 2.46-.848 4.33-.899 5.607-.05 1.277.065 4.055.347 8.332-.371 1.148-.694 1.865-.967 2.149-.274.284-.795.728-1.564 1.33-.75-1.21-1.362-3.319-1.836-6.325C.314 25.36-.056 16.971.007 16.186c.063-.785.25-2.647.347-3.602C.842 7.82.73 5.636 1.555 4.122c.687-1.257 2.15-2.01 4.39-2.26z"/>
        <path id="dS" d="M.33 2.775V.935h4.447v6.72c0 1.054.13 2.543.389 4.467L.329 10.935v-8.16z"/>
        <path id="dU" d="M5.747 7.13c.628 1.556-.331 2.155-2.876 1.795C.326 8.565-.409 8.18.665 7.764L1.1.55h3.498c-.267 2.974-.4 4.92-.4 5.837 0 .917.516 1.164 1.55.741z"/>
        <path id="dW" d="M1.097.761c4.393-.215 7.477-.215 9.25 0 3.801.46 6.755 1.505 8.977 1.367 3.175-.196 4.762-.445 4.762-.744.099 2.863.099 5.573 0 8.13-.05 1.324-.432 3.398-.624 6.584-.086 1.427-.453 7.973-1.33 17.905-.224 2.542-.873 7.06-1.947 13.556-1.477.148-2.56.148-3.25 0-.688-.148-1.327-.518-1.916-1.11.184-8.298.184-14.459 0-18.484-.276-6.039-.852-11.867-1.386-11.867-.535 0-2.038 18.435-3.286 27.382-1.248 8.946-2.746 13.948-3.137 14.81-.391.863-.703-.815-2.423-1.587-1.146-.515-1.983-.163-2.51 1.056-.93-7.144-1.324-12.193-1.18-15.15.144-2.956.793-6.221 1.949-9.795C1.638 23.3.8 16.353.535 11.97.269 7.59.455 3.853 1.097.761z"/>
        <path id="dY" d="M.186.252C3.87.086 6.583.086 8.328.252c6.017.571 10.293 1.183 11.042 1.183 1.074 0 2.233-.206 3.476-.618.3 3.649.072 6.928-.684 9.84-1.135 4.366-4.557 10.022-5.195 12.18-.639 2.157 0 5.215 0 6.636 0 1.42-.967.048-1.683 3.578-.477 2.353-.943 6.459-1.398 12.316.09-8.962.09-14.917 0-17.864-.161-5.311-.609-8.357-.72-9.645-.186-2.158-.513-2.964-.98-2.418-2.163 18.735-3.449 29.605-3.858 32.61a32.52 32.52 0 0 1-2.519 8.81c.944-6.602 1.344-11.385 1.202-14.35-.214-4.446-2.338-9.47-2.44-10.218-.1-.748.888-.149 1.238 0 .233.1.634.1 1.202 0 .198-.473.094-.94-.312-1.398-.608-.689-1.54-.81-1.466-1.421.073-.611 1.971.037 1.778-1.177-.194-1.214 4.01-12.277 1.317-15.98-.744-1.022-4.837-.572-7.116-3.5C.398 7.772.056 4.917.186.253z"/>
        <path id="ea" d="M.714 7.792C.176 4.614.042 2.525.311 1.523.714.021 3.178.19 3.914.66c.735.472 1.099 3.282 2.326 4.365.818.722 1.288 1.82 1.41 3.293L.715 7.792z"/>
        <path id="ec" d="M.635 5.322C.187 3.625.073 2.507.292 1.967.622 1.157 1.142 1 2.46.93c.492-.027 1.642.11 2.64 1.037.258.24.317.866.714 1.422.267.373.882 1.017 1.845 1.933H.635z"/>
        <path id="ee" d="M7.359.193c.288.365.38 1.64-.603 2.554C5.545 3.874 2.596 4.47 1.36 4.47.124 4.47.08 4.176.08 3.142c0-.69.23-1.54.691-2.55 2.355 1.263 3.921 1.74 4.7 1.428.778-.311.778-.787 0-1.429C6.537.083 7.167-.049 7.359.193z"/>
        <path id="eg" d="M8.285 1.14c.285.39.053 1.593-.441 2.111-1.166 1.223-2.565 1.447-2.889 1.645-.692.425-2.149.476-2.704.427C1.696 5.275.934 4.987.934 3.877c0-.74.228-1.653.683-2.738C3.94 2.496 5.485 3.007 6.253 2.673c.768-.334.768-.846 0-1.534 1.165-.26 1.843-.26 2.032 0z"/>
        <path id="ei" d="M.375.443h6.784V5.64c0 .867-.784 1.569-1.753 1.569H2.127C1.16 7.209.375 6.507.375 5.64V.443z"/>
        <path id="ek" d="M.083.443h6.784V5.64c0 .867-.785 1.569-1.753 1.569H1.836C.867 7.209.083 6.507.083 5.64V.443z"/>
        <path id="em" d="M.475 10.795L.29 1.173a6.938 6.938 0 0 1 1.061-.097c.3 0 .655-.045 1.062-.135v9.854H.475z"/>
        <path id="eo" d="M.344 9.876V.03h1.938v9.847c-.256 1.28-.492 1.919-.708 1.919-.216 0-.626-.64-1.23-1.919z"/>
        <path id="eq" d="M5.114.796c.968 0 1.753.67 1.753 1.495v1.3H.083v-1.3c0-.826.784-1.495 1.753-1.495h3.278z"/>
        <path id="es" d="M2.127.065h3.28c.968 0 1.752.67 1.752 1.495v1.3H.375v-1.3c0-.826.784-1.495 1.752-1.495z"/>
        <path id="eu" d="M4.46 1.711c-1.35 0-2.446.941-2.446 2.098S3.11 5.907 4.459 5.907c1.349 0 2.446-.94 2.446-2.098 0-1.157-1.097-2.098-2.446-2.098zm0 5.702c-2.317 0-4.2-1.617-4.2-3.604S2.142.206 4.46.206c2.315 0 4.2 1.616 4.2 3.603s-1.885 3.604-4.2 3.604z"/>
        <path id="ew" d="M22.605 23.028c0 .847-.79 1.534-1.767 1.534H2.242c-.976 0-1.767-.687-1.767-1.534V2.417c0-.847.79-1.534 1.767-1.534h18.596c.976 0 1.767.686 1.767 1.534v20.611z"/>
        <path id="ey" d="M22.605 9.225c0 .835-.79 1.512-1.767 1.512H2.242c-.976 0-1.767-.677-1.767-1.512v-6.83c0-.835.79-1.512 1.767-1.512h18.596c.976 0 1.767.677 1.767 1.512v6.83z"/>
        <path id="eA" d="M7.194.443c.987 0 1.788.719 1.788 1.605v2.66H.098v-2.66c0-.886.8-1.605 1.788-1.605h5.308z"/>
        <path id="eC" d="M.098.414h8.884v5.001H.098z"/>
        <path id="eE" d="M.34.238h2.855v4.277L1.902 5.827.341 4.515z"/>
        <path id="eG" d="M.885 9.195c3.026.143 5.52-.347 7.48-1.472C10.328 6.6 12.893 4.188 16.062.492c-.39.404-.166 1.223.67 2.457.447.658 2.374.49 3.232 1.475.5.575.805 2.165.915 4.771-.607-.446-1.127-.72-1.56-.82-.431-.101-1.083-.101-1.954 0-1.426 1.956-3.587 3.324-6.482 4.104-4.343 1.17-3.834-.797-5.33-.922-2.389-.2-4.213.151-4.667 0-.738-.246-.738-1.033 0-2.362z"/>
        <path id="eI" d="M5.61 12.838C.653 9.902-.433 6.73 2.35 3.322 5.135-.087 9.04.004 14.065 3.592L5.61 12.839z"/>
        <path id="eK" d="M2.157 17.764C-.423 15.82.73 11.7 3.951 7.425 7.17 3.151 13.665-1.19 16.537.63c2.871 1.82 1.075 7.74-2.146 12.014-3.22 4.274-9.654 7.065-12.234 5.12z"/>
        <path id="eM" d="M2.678 17.197C1.385 17.13.81 15.808.621 14.12c-.125-1.125.078-2.083.61-2.875.267.635.75 1.07 1.447 1.307.699.237 1.259.237 1.68 0-1.89-1.145-3.058-2.455-3.5-3.929-.443-1.474-.073-2.79 1.11-3.946.113.73.277 1.24.492 1.529.322.433.756.562.996.475.24-.088.984-2.603 3.015-3.407 2.031-.804 2.518-.07 3.903-.526 1.385-.456.4-1.054 2.682-1.64 1.522-.391 2.844-.369 3.966.068.854 2.908-.468 6.363-3.966 10.365-5.246 6.003-9.085 5.722-10.378 5.655z"/>
        <path id="eO" d="M3.091 6.11a2.89 2.89 0 0 1 0-5.778H23.74a2.89 2.89 0 0 1 0 5.778H3.091z"/>
        <path id="eQ" d="M32.12 3.704l1.844 35.175C34.075 41 32.7 42.8 30.89 42.896l-24.827 1.3c-1.805.095-3.361-1.551-3.472-3.673L.748 5.348C.637 3.22 2.012 1.427 3.818 1.332l24.826-1.3c1.81-.096 3.365 1.545 3.476 3.672z"/>
        <path id="eS" d="M1.994.506l8.042 3.182-1.91 5.79L.082 6.297z"/>
        <path id="eU" d="M.633 1.538L23.915.318.633 1.537z"/>
        <path id="eW" d="M7.367 3.912l-5.433.285c-.894.047-1.665-.69-1.716-1.65l-.07-1.355L8.828.738 8.9 2.092c.05.96-.64 1.773-1.534 1.82z"/>
        <path id="eY" d="M7.335 4.023l-5.431.284c-.9.048-1.667-.689-1.717-1.65L.116 1.303 8.798.848l.07 1.354c.05.961-.633 1.774-1.533 1.82z"/>
        <path id="fa" d="M13.07 4.704l-10.953.574C1.111 5.33.25 4.51.195 3.446c-.056-1.071.714-1.977 1.72-2.03L12.867.842c1.007-.053 1.872.768 1.928 1.838.056 1.065-.719 1.971-1.726 2.024z"/>
        <path id="fc" d="M.807 6.966L.453.208l1.38-.072.355 6.758z"/>
        <path id="fe" d="M1.107 7.583L.753.825 2.134.753l.354 6.758z"/>
        <path id="fg" d="M.082.256h3.35c.483 1.74.556 3.158.219 4.257-.506 1.649-1.737 2.127-2.62 1.925-.885-.203.693-1.307.878-1.925.122-.412.122-.794 0-1.146-.771-.14-1.301-.323-1.592-.547C.027 2.596-.05 1.742.082.256z"/>
    </defs>
    <g fill="none" fill-rule="evenodd">
        <g transform="translate(220 42)">
            <mask id="b" fill="#fff">
                <use xlink:href="#a"/>
            </mask>
            <path fill="#E8EAF1" d="M-4.737 73.293H17.87V-4.19H-4.737z" mask="url(#b)"/>
        </g>
        <g transform="translate(232 63)">
            <mask id="d" fill="#fff">
                <use xlink:href="#c"/>
            </mask>
            <path fill="#E8EAF1" d="M-4.13 35.022h23.49V-4.799H-4.13z" mask="url(#d)"/>
        </g>
        <g transform="translate(207 48)">
            <mask id="f" fill="#fff">
                <use xlink:href="#e"/>
            </mask>
            <path fill="#E8EAF1" d="M-4.83 35.438h23.376V-4.364H-4.829z" mask="url(#f)"/>
        </g>
        <g transform="translate(228 43)">
            <mask id="h" fill="#fff">
                <use xlink:href="#g"/>
            </mask>
            <path fill="#D3D8E0" d="M-4.252 72.536h10.97V-4.947h-10.97z" mask="url(#h)"/>
        </g>
        <g transform="translate(223 43)">
            <mask id="j" fill="#fff">
                <use xlink:href="#i"/>
            </mask>
            <path fill="#D3D8E0" d="M-4.1 72.536H6.87V-4.947H-4.1z" mask="url(#j)"/>
        </g>
        <g transform="translate(231 63)">
            <mask id="l" fill="#fff">
                <use xlink:href="#k"/>
            </mask>
            <path fill="#D3D8E0" d="M-4.221 30.62h20.59V-4.008H-4.22z" mask="url(#l)"/>
        </g>
        <g transform="translate(211 50)">
            <mask id="n" fill="#fff">
                <use xlink:href="#m"/>
            </mask>
            <path fill="#D3D8E0" d="M-4.95 30.206h20.59V-4.422H-4.95z" mask="url(#n)"/>
        </g>
        <g transform="translate(225 40)">
            <mask id="p" fill="#fff">
                <use xlink:href="#o"/>
            </mask>
            <path fill="#E8EAF1" d="M-6.323-1.807l14.957-5.15L12.789 5.11l-14.957 5.15z" mask="url(#p)"/>
        </g>
        <g transform="translate(225 37)">
            <mask id="r" fill="#fff">
                <use xlink:href="#q"/>
            </mask>
            <path fill="#E8EAF1" d="M-5.493 10.432L-3.29-5.233l12.64 1.777-2.202 15.665z" mask="url(#r)"/>
        </g>
        <g transform="translate(222 39)">
            <mask id="t" fill="#fff">
                <use xlink:href="#s"/>
            </mask>
            <path fill="#E8EAF1" d="M13.492 1.556L.534-7.517-6.787 2.938 6.17 12.012z" mask="url(#t)"/>
        </g>
        <g transform="translate(225 49)">
            <mask id="v" fill="#fff">
                <use xlink:href="#u"/>
            </mask>
            <path fill="#D3D8E0" d="M-4.16 7.792H7.778V-4.15h-11.94z" mask="url(#v)"/>
        </g>
        <g transform="translate(221 68)">
            <mask id="x" fill="#fff">
                <use xlink:href="#w"/>
            </mask>
            <path fill="#D3D8E0" d="M-4.525 8.697h11.94V-4.216h-11.94z" mask="url(#x)"/>
        </g>
        <g transform="translate(229 56)">
            <mask id="z" fill="#fff">
                <use xlink:href="#y"/>
            </mask>
            <path fill="#D3D8E0" d="M-4.282 8.074h11.94V-4.354h-11.94z" mask="url(#z)"/>
        </g>
        <g transform="translate(226 72)">
            <mask id="B" fill="#fff">
                <use xlink:href="#A"/>
            </mask>
            <path fill="#D3D8E0" d="M-4.676 7.61h11.94V-4.333h-11.94z" mask="url(#B)"/>
        </g>
        <g transform="translate(224 86)">
            <mask id="D" fill="#fff">
                <use xlink:href="#C"/>
            </mask>
            <path fill="#D3D8E0" d="M-4.13 8.174H7.808V-4.253h-11.94z" mask="url(#D)"/>
        </g>
        <g transform="translate(229 95)">
            <mask id="F" fill="#fff">
                <use xlink:href="#E"/>
            </mask>
            <path fill="#D3D8E0" d="M-4.282 7.913h11.94V-4.03h-11.94z" mask="url(#F)"/>
        </g>
        <g transform="translate(220 106)">
            <mask id="H" fill="#fff">
                <use xlink:href="#G"/>
            </mask>
            <path fill="#D3D8E0" d="M-4.495 7.108h11.94V-4.834h-11.94z" mask="url(#H)"/>
        </g>
        <g transform="translate(215 67)">
            <mask id="J" fill="#fff">
                <use xlink:href="#I"/>
            </mask>
            <path fill="#D3D8E0" d="M-4.829 7.27h11.94V-4.674h-11.94z" mask="url(#J)"/>
        </g>
        <g transform="translate(208 58)">
            <mask id="L" fill="#fff">
                <use xlink:href="#K"/>
            </mask>
            <path fill="#D3D8E0" d="M-4.617 7.53h11.94V-4.412h-11.94z" mask="url(#L)"/>
        </g>
        <g transform="translate(225 63)">
            <mask id="N" fill="#fff">
                <use xlink:href="#M"/>
            </mask>
            <path fill="#D3D8E0" d="M-4.16 7.385H8.263V-4.557H-4.161z" mask="url(#N)"/>
        </g>
        <g transform="translate(243 76)">
            <mask id="P" fill="#fff">
                <use xlink:href="#O"/>
            </mask>
            <path fill="#D3D8E0" d="M-4.22 7.979H6.75V-4.934H-4.22z" mask="url(#P)"/>
        </g>
        <g transform="translate(238 66)">
            <mask id="R" fill="#fff">
                <use xlink:href="#Q"/>
            </mask>
            <path fill="#D3D8E0" d="M-4.069 7.784h10.97V-4.644h-10.97z" mask="url(#R)"/>
        </g>
        <g transform="translate(187 69)">
            <mask id="T" fill="#fff">
                <use xlink:href="#S"/>
            </mask>
            <path fill="#E8EAF1" d="M-4.225 45.322h17.273v-49.81H-4.225z" mask="url(#T)"/>
        </g>
        <g transform="translate(195 81)">
            <mask id="V" fill="#fff">
                <use xlink:href="#U"/>
            </mask>
            <path fill="#E8EAF1" d="M-4.952 22.641h17.759V-4.836H-4.952z" mask="url(#V)"/>
        </g>
        <g transform="translate(180 72)">
            <mask id="X" fill="#fff">
                <use xlink:href="#W"/>
            </mask>
            <path fill="#E8EAF1" d="M-4.983 23.388h17.758V-4.09H-4.983z" mask="url(#X)"/>
        </g>
        <g transform="translate(192 69)">
            <mask id="Z" fill="#fff">
                <use xlink:href="#Y"/>
            </mask>
            <path fill="#D3D8E0" d="M-4.376 45.42H6.34V-4.003H-4.376z" mask="url(#Z)"/>
        </g>
        <g transform="translate(189 69)">
            <mask id="ab" fill="#fff">
                <use xlink:href="#handleCardClicked"/>
            </mask>
            <path fill="#D3D8E0" d="M-4.285-4.003H6.43V45.42H-4.285z" mask="url(#ab)"/>
        </g>
        <g transform="translate(194 81)">
            <mask id="ad" fill="#fff">
                <use xlink:href="#ac"/>
            </mask>
            <path fill="#D3D8E0" d="M-4.194 20.456h16.303V-4.108H-4.194z" mask="url(#ad)"/>
        </g>
        <g transform="translate(182 74)">
            <mask id="af" fill="#fff">
                <use xlink:href="#ae"/>
            </mask>
            <path fill="#D3D8E0" d="M-4.801 19.689h16.303V-4.876H-4.8z" mask="url(#af)"/>
        </g>
        <g transform="translate(199 79)">
            <mask id="ah" fill="#fff">
                <use xlink:href="#ag"/>
            </mask>
            <path fill="#E8EAF1" d="M-5.407-2.413L7.74-5.448l2.605 11.282L-2.802 8.87z" mask="url(#ah)"/>
        </g>
        <g transform="translate(199 78)">
            <mask id="aj" fill="#fff">
                <use xlink:href="#ai"/>
            </mask>
            <path fill="#E8EAF1" d="M-2.228-5.987L9.005-3.186 5.74 9.91-5.493 7.108z" mask="url(#aj)"/>
        </g>
        <g transform="translate(198 78)">
            <mask id="al" fill="#fff">
                <use xlink:href="#ak"/>
            </mask>
            <path fill="#E8EAF1" d="M-3.16-5.188L9.642-1.997 6.71 9.764l-12.8-3.191z" mask="url(#al)"/>
        </g>
        <g transform="translate(181 70)">
            <mask id="an" fill="#fff">
                <use xlink:href="#am"/>
            </mask>
            <path fill="#E8EAF1" d="M-6.144-1.373L6.612-5.766l3.77 10.949-12.756 4.392z" mask="url(#an)"/>
        </g>
        <g transform="translate(181 69)">
            <mask id="ap" fill="#fff">
                <use xlink:href="#ao"/>
            </mask>
            <path fill="#E8EAF1" d="M-5.34 8.108l1.877-13.36L8.004-3.641 6.126 9.72z" mask="url(#ap)"/>
        </g>
        <g transform="translate(179 70)">
            <mask id="ar" fill="#fff">
                <use xlink:href="#aq"/>
            </mask>
            <path fill="#E8EAF1" d="M11.237.788L.185-6.95l-6.641 9.485 11.051 7.738z" mask="url(#ar)"/>
        </g>
        <g transform="translate(191 73)">
            <mask id="at" fill="#fff">
                <use xlink:href="#as"/>
            </mask>
            <path fill="#D3D8E0" d="M-4.912 6.448H6.22V-4.685H-4.912z" mask="url(#at)"/>
        </g>
        <g transform="translate(188 84)">
            <mask id="av" fill="#fff">
                <use xlink:href="#au"/>
            </mask>
            <path fill="#D3D8E0" d="M-4.336 7.601H6.795v-11.65H-4.336z" mask="url(#av)"/>
        </g>
        <g transform="translate(193 77)">
            <mask id="ax" fill="#fff">
                <use xlink:href="#aw"/>
            </mask>
            <path fill="#D3D8E0" d="M-4.487-4.356H6.644V6.857H-4.487z" mask="url(#ax)"/>
        </g>
        <g transform="translate(191 86)">
            <mask id="az" fill="#fff">
                <use xlink:href="#ay"/>
            </mask>
            <path fill="#D3D8E0" d="M-4.427 7.041H6.705V-4.09H-4.427z" mask="url(#az)"/>
        </g>
        <g transform="translate(190 95)">
            <mask id="aB" fill="#fff">
                <use xlink:href="#aA"/>
            </mask>
            <path fill="#D3D8E0" d="M-4.396 6.82h11.13V-4.392h-11.13z" mask="url(#aB)"/>
        </g>
        <g transform="translate(193 100)">
            <mask id="aD" fill="#fff">
                <use xlink:href="#aC"/>
            </mask>
            <path fill="#D3D8E0" d="M-4.487 7.12H6.644V-4.012H-4.487z" mask="url(#aD)"/>
        </g>
        <g transform="translate(188 106)">
            <mask id="aF" fill="#fff">
                <use xlink:href="#aE"/>
            </mask>
            <path fill="#D3D8E0" d="M-4.821 6.946H6.31V-4.186H-4.82z" mask="url(#aF)"/>
        </g>
        <g transform="translate(184 83)">
            <mask id="aH" fill="#fff">
                <use xlink:href="#aG"/>
            </mask>
            <path fill="#D3D8E0" d="M-4.215 7.128H6.916V-4.004H-4.215z" mask="url(#aH)"/>
        </g>
        <g transform="translate(180 78)">
            <mask id="aJ" fill="#fff">
                <use xlink:href="#aI"/>
            </mask>
            <path fill="#D3D8E0" d="M-4.094 6.788H7.037V-4.345H-4.094z" mask="url(#aJ)"/>
        </g>
        <g transform="translate(191 81)">
            <mask id="aL" fill="#fff">
                <use xlink:href="#aK"/>
            </mask>
            <path fill="#D3D8E0" d="M-4.952 6.701H6.26V-4.432H-4.952z" mask="url(#aL)"/>
        </g>
        <g transform="translate(201 88)">
            <mask id="aN" fill="#fff">
                <use xlink:href="#aM"/>
            </mask>
            <path fill="#D3D8E0" d="M-4.406 7.485H6.311v-11.65H-4.406z" mask="url(#aN)"/>
        </g>
        <g transform="translate(199 83)">
            <mask id="aP" fill="#fff">
                <use xlink:href="#aO"/>
            </mask>
            <path fill="#D3D8E0" d="M-4.83 6.683H5.886V-4.53H-4.83z" mask="url(#aP)"/>
        </g>
        <g transform="translate(257 86)">
            <mask id="aR" fill="#fff">
                <use xlink:href="#aQ"/>
            </mask>
            <path fill="#E8EAF1" d="M-4.4 30.264H9.964V-4.011H-4.4z" mask="url(#aR)"/>
        </g>
        <g transform="translate(252 93)">
            <mask id="aT" fill="#fff">
                <use xlink:href="#aS"/>
            </mask>
            <path fill="#E8EAF1" d="M-4.25 16.467H10.6v-20.68H-4.25z" mask="url(#aT)"/>
        </g>
        <g transform="translate(261 88)">
            <mask id="aV" fill="#fff">
                <use xlink:href="#aU"/>
            </mask>
            <path fill="#E8EAF1" d="M-4.521 16.612h14.849v-20.68h-14.85z" mask="url(#aV)"/>
        </g>
        <g transform="translate(258 86)">
            <mask id="aX" fill="#fff">
                <use xlink:href="#aW"/>
            </mask>
            <path fill="#D3D8E0" d="M-4.905 30.418H5.812V-4.103H-4.905z" mask="url(#aX)"/>
        </g>
        <g transform="translate(260 86)">
            <mask id="aZ" fill="#fff">
                <use xlink:href="#aY"/>
            </mask>
            <path fill="#D3D8E0" d="M-4.965 30.418H5.752V-4.103H-4.965z" mask="url(#aZ)"/>
        </g>
        <g transform="translate(253 94)">
            <mask id="bb" fill="#fff">
                <use xlink:href="#ba"/>
            </mask>
            <path fill="#D3D8E0" d="M-4.037 14.739h13.88V-4.485h-13.88z" mask="url(#bb)"/>
        </g>
        <g transform="translate(261 89)">
            <mask id="bd" fill="#fff">
                <use xlink:href="#bc"/>
            </mask>
            <path fill="#D3D8E0" d="M-4.764 14.884h13.88V-4.34h-13.88z" mask="url(#bd)"/>
        </g>
        <g transform="translate(263 87)">
            <mask id="bf" fill="#fff">
                <use xlink:href="#be"/>
            </mask>
            <path fill="#E8EAF1" d="M9.627 2.366L2.216-7.119l-8.71 6.805 7.41 9.485z" mask="url(#bf)"/>
        </g>
        <g transform="translate(264 86)">
            <mask id="bh" fill="#fff">
                <use xlink:href="#bg"/>
            </mask>
            <path fill="#E8EAF1" d="M3.65 9.696L8.736-1.212-1.28-5.884l-5.087 10.91z" mask="url(#bh)"/>
        </g>
        <g transform="translate(264 87)">
            <mask id="bj" fill="#fff">
                <use xlink:href="#bi"/>
            </mask>
            <path fill="#E8EAF1" d="M-4.719-3.857l12.03-.42.385 11.047-12.029.42z" mask="url(#bj)"/>
        </g>
        <g transform="translate(259 89)">
            <mask id="bl" fill="#fff">
                <use xlink:href="#bk"/>
            </mask>
            <path fill="#D3D8E0" d="M-4.622 6.064H6.186V-4.745H-4.622z" mask="url(#bl)"/>
        </g>
        <g transform="translate(260 96)">
            <mask id="bn" fill="#fff">
                <use xlink:href="#bm"/>
            </mask>
            <path fill="#D3D8E0" d="M-4.168 6.33H6.641V-4.932H-4.168z" mask="url(#bn)"/>
        </g>
        <g transform="translate(257 91)">
            <mask id="bp" fill="#fff">
                <use xlink:href="#bo"/>
            </mask>
            <path fill="#D3D8E0" d="M-4.562 6.512H6.246v-10.85H-4.562z" mask="url(#bp)"/>
        </g>
        <g transform="translate(258 97)">
            <mask id="br" fill="#fff">
                <use xlink:href="#bq"/>
            </mask>
            <path fill="#D3D8E0" d="M-4.107 6.317H6.7V-4.491H-4.107z" mask="url(#br)"/>
        </g>
        <g transform="translate(259 102)">
            <mask id="bt" fill="#fff">
                <use xlink:href="#bs"/>
            </mask>
            <path fill="#D3D8E0" d="M-4.622 6.678H6.186v-10.85H-4.622z" mask="url(#bt)"/>
        </g>
        <g transform="translate(257 106)">
            <mask id="bv" fill="#fff">
                <use xlink:href="#bu"/>
            </mask>
            <path fill="#D3D8E0" d="M-4.562 6.056H6.246V-4.753H-4.562z" mask="url(#bv)"/>
        </g>
        <g transform="translate(260 109)">
            <mask id="bx" fill="#fff">
                <use xlink:href="#bw"/>
            </mask>
            <path fill="#D3D8E0" d="M-4.168 6.455H6.64v-10.81H-4.168z" mask="url(#bx)"/>
        </g>
        <g transform="translate(262 95)">
            <mask id="bz" fill="#fff">
                <use xlink:href="#by"/>
            </mask>
            <path fill="#D3D8E0" d="M-4.228 6.376H6.58v-10.81H-4.228z" mask="url(#bz)"/>
        </g>
        <g transform="translate(265 92)">
            <mask id="bB" fill="#fff">
                <use xlink:href="#bA"/>
            </mask>
            <path fill="#D3D8E0" d="M-4.804 5.977H6.005V-4.832H-4.804z" mask="url(#bB)"/>
        </g>
        <g transform="translate(259 94)">
            <mask id="bD" fill="#fff">
                <use xlink:href="#bC"/>
            </mask>
            <path fill="#D3D8E0" d="M-4.643 5.92H6.206V-4.89H-4.643z" mask="url(#bD)"/>
        </g>
        <g transform="translate(253 98)">
            <mask id="bF" fill="#fff">
                <use xlink:href="#bE"/>
            </mask>
            <path fill="#D3D8E0" d="M-4.996 6.758H5.721V-4.504H-4.996z" mask="url(#bF)"/>
        </g>
        <g transform="translate(254 95)">
            <mask id="bH" fill="#fff">
                <use xlink:href="#bG"/>
            </mask>
            <path fill="#D3D8E0" d="M-4.541 5.91H6.175V-4.94H-4.54z" mask="url(#bH)"/>
        </g>
        <g transform="translate(154 30)">
            <mask id="bK" fill="#fff">
                <use xlink:href="#bI"/>
            </mask>
            <path fill="url(#bJ)" d="M-150 421h320v-640h-320z" mask="url(#bK)"/>
        </g>
        <g transform="translate(154 30)">
            <mask id="bN" fill="#fff">
                <use xlink:href="#bL"/>
            </mask>
            <path fill="url(#bM)" d="M-150 421h320v-640h-320z" mask="url(#bN)"/>
        </g>
        <g transform="translate(4 108)">
            <mask id="bQ" fill="#fff">
                <use xlink:href="#bO"/>
            </mask>
            <path fill="url(#bP)" d="M0 343h320v-640H0z" mask="url(#bQ)"/>
        </g>
        <g transform="translate(4 108)">
            <mask id="bT" fill="#fff">
                <use xlink:href="#bR"/>
            </mask>
            <path fill="url(#bS)" d="M0 343h320v-640H0z" mask="url(#bT)"/>
        </g>
        <g transform="translate(177 141)">
            <mask id="bV" fill="#fff">
                <use xlink:href="#bU"/>
            </mask>
            <path fill="#FEDD00" fill-opacity=".5" d="M-1.531-8.304l22.459 6.866-5.092 16.653-22.458-6.866z" mask="url(#bV)"/>
        </g>
        <g transform="translate(285 84)">
            <mask id="bX" fill="#fff">
                <use xlink:href="#bW"/>
            </mask>
            <path fill="#FEDD00" fill-opacity=".5" d="M.025-7.496L14.27.73 7.498 12.46-6.748 4.235z" mask="url(#bX)"/>
        </g>
        <g transform="translate(158 101)">
            <mask id="bZ" fill="#fff">
                <use xlink:href="#bY"/>
            </mask>
            <path fill="#FEDD00" fill-opacity=".5" d="M-7.46 1.252L7.674-6.13l6.032 12.367-15.134 7.382z" mask="url(#bZ)"/>
        </g>
        <g transform="translate(251 127)">
            <mask id="cb" fill="#fff">
                <use xlink:href="#ca"/>
            </mask>
            <path fill="#FEDD00" fill-opacity=".5" d="M-5.327-3.687l14.92-.782.665 12.698-14.92.782z" mask="url(#cb)"/>
        </g>
        <g transform="translate(131 175)">
            <mask id="cd" fill="#fff">
                <use xlink:href="#cc"/>
            </mask>
            <path fill="#FEDD00" d="M-7.206-.757l26.572-4.685 3.238 18.363-26.572 4.686z" mask="url(#cd)"/>
        </g>
        <g transform="translate(204 97)">
            <mask id="cf" fill="#fff">
                <use xlink:href="#ce"/>
            </mask>
            <path fill="#FEDD00" d="M-5.893-2.01L14.57-5.25l2.418 15.266-20.463 3.241z" mask="url(#cf)"/>
        </g>
        <g transform="translate(229 144)">
            <mask id="ch" fill="#fff">
                <use xlink:href="#cg"/>
            </mask>
            <path fill="#FEDD00" d="M-5.911-2.886l25.753-2.253 1.575 18.003-25.753 2.253z" mask="url(#ch)"/>
        </g>
        <g transform="translate(281 113)">
            <mask id="cj" fill="#fff">
                <use xlink:href="#ci"/>
            </mask>
            <path fill="#FEDD00" d="M-6.027-2.957L19.724-5.21 21.3 12.792l-25.752 2.254z" mask="url(#cj)"/>
        </g>
        <g transform="translate(227 3)">
            <mask id="cl" fill="#fff">
                <use xlink:href="#ck"/>
            </mask>
            <path fill="#FEDD00" d="M-4.949 24.42h29.396V-5H-4.949z" mask="url(#cl)"/>
        </g>
        <g transform="translate(227 5)">
            <mask id="co" fill="#fff">
                <use xlink:href="#cm"/>
            </mask>
            <path fill="url(#cn)" d="M-223 446H97v-640h-320z" mask="url(#co)"/>
        </g>
        <g transform="translate(227 5)">
            <mask id="cr" fill="#fff">
                <use xlink:href="#cp"/>
            </mask>
            <path fill="url(#cq)" d="M-223 446H97v-640h-320z" mask="url(#cr)"/>
        </g>
        <g transform="translate(126 128)">
            <mask id="ct" fill="#fff">
                <use xlink:href="#cs"/>
            </mask>
            <path fill="#F2D0C5" d="M-4.032 28.157H14.1v-32.36H-4.03z" mask="url(#ct)"/>
        </g>
        <g transform="translate(129 145)">
            <mask id="cv" fill="#fff">
                <use xlink:href="#cu"/>
            </mask>
            <path fill="#B9BCC8" d="M-4.197 5.98h14.854V-4.946H-4.197z" mask="url(#cv)"/>
        </g>
        <g transform="translate(129 145)">
            <mask id="cx" fill="#fff">
                <use xlink:href="#cw"/>
            </mask>
            <path fill="#CACDD8" d="M-4.12 11.109h14.955V-4.197H-4.12z" mask="url(#cx)"/>
        </g>
        <g transform="translate(130 150)">
            <mask id="cz" fill="#fff">
                <use xlink:href="#cy"/>
            </mask>
            <path fill="#000" d="M-5.344-3.79L13.79-5.128l1.147 16.4-19.134 1.338z" mask="url(#cz)"/>
        </g>
        <g transform="translate(114 128)">
            <mask id="cB" fill="#fff">
                <use xlink:href="#cA"/>
            </mask>
            <path fill="#F2D0C5" d="M-3.234-5.918l17.996 2.21-3.944 32.119-17.996-2.21z" mask="url(#cB)"/>
        </g>
        <g transform="translate(115 144)">
            <mask id="cD" fill="#fff">
                <use xlink:href="#cC"/>
            </mask>
            <path fill="#B9BCC8" d="M-3.401-5.435l14.742 1.81-1.332 10.843-14.742-1.81z" mask="url(#cD)"/>
        </g>
        <g transform="translate(115 144)">
            <mask id="cF" fill="#fff">
                <use xlink:href="#cE"/>
            </mask>
            <path fill="#CACDD8" d="M-3.418-4.684L11.427-2.86 9.562 12.331l-14.845-1.823z" mask="url(#cF)"/>
        </g>
        <g transform="translate(115 149)">
            <mask id="cH" fill="#fff">
                <use xlink:href="#cG"/>
            </mask>
            <path fill="#000" d="M-4.298-4.343L14.856-3.34l-.86 16.417-19.154-1.003z" mask="url(#cH)"/>
        </g>
        <g transform="translate(113 100)">
            <mask id="cJ" fill="#fff">
                <use xlink:href="#cI"/>
            </mask>
            <path fill="#0064D2" d="M-6.853-3.47l33.278-2.327 2.842 40.633-33.28 2.327z" mask="url(#cJ)"/>
        </g>
        <g transform="translate(115 95)">
            <mask id="cL" fill="#fff">
                <use xlink:href="#cK"/>
            </mask>
            <path fill="#D8D8D8" d="M.447.927h1.46V13.61H.447z" mask="url(#cL)"/>
        </g>
        <g transform="translate(115 95)">
            <mask id="cN" fill="#fff">
                <use xlink:href="#cM"/>
            </mask>
            <path stroke="#979797" stroke-width="2" d="M.447.927h1.46V13.61H.447z" mask="url(#cN)"/>
        </g>
        <g transform="translate(114 96)">
            <mask id="cP" fill="#fff">
                <use xlink:href="#cO"/>
            </mask>
            <path fill="#D8D8D8" d="M.473.415h2.434v1.95H.473z" mask="url(#cP)"/>
        </g>
        <path stroke="#979797" stroke-width="8" d="M114.473 96.415h2.434v1.95h-2.434z"/>
        <g transform="translate(113 69)">
            <mask id="cR" fill="#fff">
                <use xlink:href="#cQ"/>
            </mask>
            <path fill="#E8EAF1" d="M-4.013-4.82H40.54v33.332H-4.013z" mask="url(#cR)"/>
        </g>
        <g transform="translate(115 70)">
            <mask id="cT" fill="#fff">
                <use xlink:href="#cS"/>
            </mask>
            <path fill="#CBCED9" d="M-4.553-4.927H37.08v31.464H-4.553z" mask="url(#cT)"/>
        </g>
        <g transform="translate(116 78)">
            <mask id="cV" fill="#fff">
                <use xlink:href="#cU"/>
            </mask>
            <path fill="#E3E4E8" d="M-4.823-4.878h39.686v15.862H-4.823z" mask="url(#cV)"/>
        </g>
        <g transform="translate(129 81)">
            <mask id="cX" fill="#fff">
                <use xlink:href="#cW"/>
            </mask>
            <path fill="#E3E4E8" d="M-4.927-4.463H5.79v18.292H-4.927z" mask="url(#cX)"/>
        </g>
        <g transform="translate(128 85)">
            <mask id="cZ" fill="#fff">
                <use xlink:href="#cY"/>
            </mask>
            <path fill="#E3E4E8" d="M-4.17 8.854h20.22V-4.073H-4.17z" mask="url(#cZ)"/>
        </g>
        <g transform="translate(136 85)">
            <mask id="db" fill="#fff">
                <use xlink:href="#da"/>
            </mask>
            <path fill="#E3E4E8" d="M-4.383 12.268H13.89V-4.073H-4.383z" mask="url(#db)"/>
        </g>
        <g transform="translate(140 83)">
            <mask id="dd" fill="#fff">
                <use xlink:href="#dc"/>
            </mask>
            <path fill="#E3E4E8" d="M-4.003 8.659H8.773V-4.512H-4.003z" mask="url(#dd)"/>
        </g>
        <g transform="translate(116 72)">
            <mask id="df" fill="#fff">
                <use xlink:href="#de"/>
            </mask>
            <path fill="#DEE1EF" d="M-4.58-4.87h38.685v18.675H-4.58z" mask="url(#df)"/>
        </g>
        <g transform="translate(143 77)">
            <mask id="dh" fill="#fff">
                <use xlink:href="#dg"/>
            </mask>
            <path fill="#F2D0C5" d="M-4.327 14.17h15.354V-4.61H-4.327z" mask="url(#dh)"/>
        </g>
        <g transform="translate(113 84)">
            <mask id="dj" fill="#fff">
                <use xlink:href="#di"/>
            </mask>
            <path fill="#FEDD00" d="M-4.5 34.976H42V-4.78H-4.5z" mask="url(#dj)"/>
        </g>
        <g transform="translate(125 86)">
            <mask id="dl" fill="#fff">
                <use xlink:href="#dk"/>
            </mask>
            <path fill="#B9BCC8" d="M-4.82-4.83h16.316v37.22H-4.82z" mask="url(#dl)"/>
        </g>
        <g transform="translate(124 84)">
            <mask id="dn" fill="#fff">
                <use xlink:href="#dm"/>
            </mask>
            <path fill="#B9BCC8" d="M-4.307 7.659h15.354v-12.44H-4.307z" mask="url(#dn)"/>
        </g>
        <g transform="translate(111 86)">
            <mask id="dp" fill="#fff">
                <use xlink:href="#do"/>
            </mask>
            <path fill="#CACDD8" d="M-4.447-4.83h25.574v37.318H-4.447z" mask="url(#dp)"/>
        </g>
        <g transform="translate(110 86)">
            <mask id="dr" fill="#fff">
                <use xlink:href="#dq"/>
            </mask>
            <path fill="#B9BCC8" d="M-4.42-4.83h28.493v18.293H-4.42z" mask="url(#dr)"/>
        </g>
        <g transform="translate(115 93)">
            <mask id="dt" fill="#fff">
                <use xlink:href="#ds"/>
            </mask>
            <path fill="#B9BCC8" d="M-4.553-4.512H7.393v24.146H-4.553z" mask="url(#dt)"/>
        </g>
        <g transform="translate(121 93)">
            <mask id="dv" fill="#fff">
                <use xlink:href="#du"/>
            </mask>
            <path fill="#B9BCC8" d="M-4.713-4.512H7.233v24.146H-4.713z" mask="url(#dv)"/>
        </g>
        <g transform="translate(114 99)">
            <mask id="dx" fill="#fff">
                <use xlink:href="#dw"/>
            </mask>
            <path fill="#B9BCC8" d="M-4.527 7.78H8.88V-4.659H-4.527z" mask="url(#dx)"/>
        </g>
        <g transform="translate(120 99)">
            <mask id="dz" fill="#fff">
                <use xlink:href="#dy"/>
            </mask>
            <path fill="#B9BCC8" d="M-4.2 7.78H9.207V-4.659H-4.2z" mask="url(#dz)"/>
        </g>
        <g transform="translate(127 101)">
            <mask id="dB" fill="#fff">
                <use xlink:href="#dA"/>
            </mask>
            <path fill="#CACDD8" d="M-4.387 12.537H9.02v-16.83H-4.387z" mask="url(#dB)"/>
        </g>
        <g transform="translate(127 99)">
            <mask id="dD" fill="#fff">
                <use xlink:href="#dC"/>
            </mask>
            <path fill="#E1E1E1" d="M-4.387 8.195H9.02V-4.732H-4.387z" mask="url(#dD)"/>
        </g>
        <g transform="translate(110 102)">
            <mask id="dF" fill="#fff">
                <use xlink:href="#dE"/>
            </mask>
            <path fill="#CACDD8" d="M-4.42 14.537H8.5v-18.78H-4.42z" mask="url(#dF)"/>
        </g>
        <g transform="translate(121 69)">
            <mask id="dH" fill="#fff">
                <use xlink:href="#dG"/>
            </mask>
            <path fill="#F2D0C5" d="M-4.188-4.445h19.186v24.817H-4.188z" mask="url(#dH)"/>
        </g>
        <g transform="translate(118 68)">
            <mask id="dJ" fill="#fff">
                <use xlink:href="#dI"/>
            </mask>
            <path fill="#222" d="M-4.257 19.062h22.912v-23.8H-4.257z" mask="url(#dJ)"/>
        </g>
        <g transform="translate(82 168)">
            <mask id="dL" fill="#fff">
                <use xlink:href="#dK"/>
            </mask>
            <path fill="#F4F5F8" d="M-4.558 10H17.13V-4.279H-4.56z" mask="url(#dL)"/>
        </g>
        <g transform="translate(97 153)">
            <mask id="dN" fill="#fff">
                <use xlink:href="#dM"/>
            </mask>
            <path fill="#FBE174" d="M-4.846 10.219h18.465V-4.45H-4.846z" mask="url(#dN)"/>
        </g>
        <g transform="translate(79 104)">
            <mask id="dP" fill="#fff">
                <use xlink:href="#dO"/>
            </mask>
            <path fill="#F2D0C5" d="M-4.213 12.39H8.865V-4.404H-4.213z" mask="url(#dP)"/>
        </g>
        <g transform="translate(77 72)">
            <mask id="dR" fill="#fff">
                <use xlink:href="#dQ"/>
            </mask>
            <path fill="#FEDD00" d="M-5-4.881h43.855v46.074H-5z" mask="url(#dR)"/>
        </g>
        <g transform="translate(84 156)">
            <mask id="dT" fill="#fff">
                <use xlink:href="#dS"/>
            </mask>
            <path fill="#F2D0C5" d="M-4.67-4.065h14.836v21.187H-4.671z" mask="url(#dT)"/>
        </g>
        <g transform="translate(97 146)">
            <mask id="dV" fill="#fff">
                <use xlink:href="#dU"/>
            </mask>
            <path fill="#F2D0C5" d="M-4.813-4.449h15.746v18.476H-4.813z" mask="url(#dV)"/>
        </g>
        <g transform="translate(82 102)">
            <mask id="dX" fill="#fff">
                <use xlink:href="#dW"/>
            </mask>
            <path fill="#0064D2" d="M-4.582-4.4H29.16v67.93H-4.582z" mask="url(#dX)"/>
        </g>
        <g transform="translate(83 103)">
            <mask id="dZ" fill="#fff">
                <use xlink:href="#dY"/>
            </mask>
            <path fill="#0064D2" d="M-4.84-4.872h32.814V61.86H-4.841z" mask="url(#dZ)"/>
        </g>
        <g transform="translate(84 163)">
            <mask id="eb" fill="#fff">
                <use xlink:href="#ea"/>
            </mask>
            <path fill="#000" d="M-4.824-4.672h17.475v17.99H-4.824z" mask="url(#eb)"/>
        </g>
        <g transform="translate(84 166)">
            <mask id="ed" fill="#fff">
                <use xlink:href="#ec"/>
            </mask>
            <path fill="#DDD" d="M-4.816 10.322h17.474V-4.073H-4.816z" mask="url(#ed)"/>
        </g>
        <g transform="translate(97 153)">
            <mask id="ef" fill="#fff">
                <use xlink:href="#ee"/>
            </mask>
            <path fill="#DDD" d="M-4.92 9.47h17.474V-4.925H-4.92z" mask="url(#ef)"/>
        </g>
        <g transform="translate(96 152)">
            <mask id="eh" fill="#fff">
                <use xlink:href="#eg"/>
            </mask>
            <path fill="#727EAA" d="M-4.066 10.338H13.41V-4.057H-4.066z" mask="url(#eh)"/>
        </g>
        <g transform="translate(100 96)">
            <mask id="ej" fill="#fff">
                <use xlink:href="#ei"/>
            </mask>
            <path fill="#B9BCC8" d="M-4.625-4.557h16.784V12.21H-4.625z" mask="url(#ej)"/>
        </g>
        <g transform="translate(78 96)">
            <mask id="el" fill="#fff">
                <use xlink:href="#ek"/>
            </mask>
            <path fill="#B9BCC8" d="M-4.917 12.209h16.784V-4.557H-4.917z" mask="url(#el)"/>
        </g>
        <g transform="translate(81 73)">
            <mask id="en" fill="#fff">
                <use xlink:href="#em"/>
            </mask>
            <path fill="#9B9B9B" d="M-4.71 15.795H7.413V-4.06H-4.71z" mask="url(#en)"/>
        </g>
        <g transform="translate(101 72)">
            <mask id="ep" fill="#fff">
                <use xlink:href="#eo"/>
            </mask>
            <path fill="#9B9B9B" d="M-4.656 16.795H7.282V-4.971H-4.656z" mask="url(#ep)"/>
        </g>
        <g transform="translate(78 93)">
            <mask id="er" fill="#fff">
                <use xlink:href="#eq"/>
            </mask>
            <path fill="#B9BCC8" d="M-4.917-4.204h16.784V8.59H-4.917z" mask="url(#er)"/>
        </g>
        <g transform="translate(100 94)">
            <mask id="et" fill="#fff">
                <use xlink:href="#es"/>
            </mask>
            <path fill="#B9BCC8" d="M-4.625-4.935h16.784V7.859H-4.625z" mask="url(#et)"/>
        </g>
        <g transform="translate(88 78)">
            <mask id="ev" fill="#fff">
                <use xlink:href="#eu"/>
            </mask>
            <path fill="#AA382B" d="M-4.74-4.794h18.4v17.207h-18.4z" mask="url(#ev)"/>
        </g>
        <g transform="translate(81 81)">
            <mask id="ex" fill="#fff">
                <use xlink:href="#ew"/>
            </mask>
            <path fill="#CACDD8" d="M-4.525-4.117h32.13v33.68h-32.13z" mask="url(#ex)"/>
        </g>
        <g transform="translate(81 81)">
            <mask id="ez" fill="#fff">
                <use xlink:href="#ey"/>
            </mask>
            <path fill="#B9BCC8" d="M-4.525-4.117h32.13v19.854h-32.13z" mask="url(#ez)"/>
        </g>
        <g transform="translate(88 96)">
            <mask id="eB" fill="#fff">
                <use xlink:href="#eA"/>
            </mask>
            <path fill="#ACAFB9" d="M-4.902-4.557h18.884V9.71H-4.902z" mask="url(#eB)"/>
        </g>
        <g transform="translate(88 100)">
            <mask id="eD" fill="#fff">
                <use xlink:href="#eC"/>
            </mask>
            <path fill="#B9BCC8" d="M-4.902-4.586h18.884v15.001H-4.902z" mask="url(#eD)"/>
        </g>
        <g transform="translate(91 99)">
            <mask id="eF" fill="#fff">
                <use xlink:href="#eE"/>
            </mask>
            <path fill="#ACAFB9" d="M-4.66 10.827H8.196v-15.59H-4.66z" mask="url(#eF)"/>
        </g>
        <g transform="translate(84 64)">
            <mask id="eH" fill="#fff">
                <use xlink:href="#eG"/>
            </mask>
            <path fill="#000" d="M-4.669 17.849h30.547V-4.508H-4.67z" mask="url(#eH)"/>
        </g>
        <g stroke="#000" stroke-linecap="round" stroke-linejoin="round" stroke-width="3">
            <path d="M100.114 66.046c.988.668 1.667 1.053 2.037 1.156.672.187 1.723.064 2.194.15.47.087 1.238.489 1.245.493"/>
            <path d="M100.055 66.07c.537.366.969.666 1.295.897.592.42 2.537.585 2.83.811 1.614 1.249 1.367 5.184 1.35 4.941"/>
        </g>
        <g transform="translate(83 57)">
            <mask id="eJ" fill="#fff">
                <use xlink:href="#eI"/>
            </mask>
            <path fill="#B9BECD" d="M-4.151 17.838h23.215V-4.168H-4.15z" mask="url(#eJ)"/>
        </g>
        <g transform="translate(84 56)">
            <mask id="eL" fill="#fff">
                <use xlink:href="#eK"/>
            </mask>
            <path fill="#B9BECD" d="M10.796-9.968L27.95 2.959 8.483 28.791-8.67 15.866z" mask="url(#eL)"/>
        </g>
        <g transform="translate(85 57)">
            <mask id="eN" fill="#fff">
                <use xlink:href="#eM"/>
            </mask>
            <path fill="#CBCED9" d="M-4.415 22.22h26.688V-4.168H-4.415z" mask="url(#eN)"/>
        </g>
        <path stroke="#B9BECD" stroke-linecap="round" stroke-linejoin="round" stroke-width="2" d="M94.88 59.059c2.346 1.178 2.802 3.048 1.37 5.608-1.434 2.56-3.638 4.43-6.613 5.609"/>
        <g transform="translate(79 77)">
            <mask id="eP" fill="#fff">
                <use xlink:href="#eO"/>
            </mask>
            <path fill="#CACDD8" d="M-4.798 11.11h36.426V-4.668H-4.798z" mask="url(#eP)"/>
        </g>
        <g transform="translate(93 119)">
            <mask id="eR" fill="#fff">
                <use xlink:href="#eQ"/>
            </mask>
            <path fill="#FEDD00" d="M-4.708-3.228L36.65-5.395l2.77 52.85-41.358 2.168z" mask="url(#eR)"/>
        </g>
        <g transform="translate(112 147)">
            <mask id="eT" fill="#fff">
                <use xlink:href="#eS"/>
            </mask>
            <path fill="#FFF" d="M-5.47-4.11l20.05-1.05 1.009 19.254-20.05 1.05z" mask="url(#eT)"/>
        </g>
        <g transform="translate(96 125)">
            <mask id="eV" fill="#fff">
                <use xlink:href="#eU"/>
            </mask>
            <path fill="#FEDD00" d="M-4.622-3.194l33.269-1.743.523 9.986-33.269 1.743z" mask="url(#eV)"/>
        </g>
        <g transform="translate(99 162)">
            <mask id="eX" fill="#fff">
                <use xlink:href="#eW"/>
            </mask>
            <path fill="#E8EAF1" d="M-5.107-3.539l18.668-.978.685 13.075-18.668.979z" mask="url(#eX)"/>
        </g>
        <g transform="translate(116 161)">
            <mask id="eZ" fill="#fff">
                <use xlink:href="#eY"/>
            </mask>
            <path fill="#E8EAF1" d="M-5.139-3.428l18.668-.979.685 13.076-18.668.978z" mask="url(#eZ)"/>
        </g>
        <g transform="translate(100 108)">
            <mask id="fb" fill="#fff">
                <use xlink:href="#fa"/>
            </mask>
            <path fill="#D3D4D7" d="M-5.161-3.22l24.587-1.288.725 13.848-24.587 1.288z" mask="url(#fb)"/>
        </g>
        <g transform="translate(103 113)">
            <mask id="fd" fill="#fff">
                <use xlink:href="#fc"/>
            </mask>
            <path fill="#D3D4D7" d="M-4.802-4.524l11.367-.595.878 16.744-11.368.596z" mask="url(#fd)"/>
        </g>
        <g transform="translate(110 112)">
            <mask id="ff" fill="#fff">
                <use xlink:href="#fe"/>
            </mask>
            <path fill="#D3D4D7" d="M-4.502-3.906l11.368-.596.877 16.744-11.367.596z" mask="url(#ff)"/>
        </g>
        <g transform="translate(107 106)">
            <mask id="fh" fill="#fff">
                <use xlink:href="#fg"/>
            </mask>
            <path fill="#F2D0C5" d="M-4.981 11.481h13.84V-4.744h-13.84z" mask="url(#fh)"/>
        </g>
    </g>
</svg>
